M48
;Layer_Color=9474304
;FILE_FORMAT=2:5
INCH,LZ
;TYPE=PLATED
T1F00S00C0.00600
T2F00S00C0.03150
T3F00S00C0.04000
T4F00S00C0.09449
;TYPE=NON_PLATED
T5F00S00C0.05512
T6F00S00C0.05700
%
T01
X0013133Y0232
X0023133
X0033133
X0043133
X0053133
X0063133
X0068133Y0242
X0058133
X0038133
X0028133
X0033133Y0252
X0038101Y0255238
Y0261143
Y0267049
Y0272954
X0033133Y0272
X0045301Y0273054
Y0267149
Y0261243
Y0255338
X0043133Y0252
X0023133
X0028133Y0262
Y0282
X0038101Y0282797
X0045301Y0282897
X0033133Y0292
X0063133
X00659Y025625
X00675Y025435
X0073133Y0252
X0083133
X0076791Y0260256
X0075191Y0262156
X0088133Y0262
X00848Y02663
X0083147Y02681
X00945Y02721
X0092848Y0273967
X0103133Y0272
X01035Y02818
X01025Y02838
X0108133Y0282
X0118133
X0128133
X0138133
X0133133Y0272
X0153133
X0157115Y02808
X01607Y02788
X0160924Y0286734
Y0290634
X0153133Y0292
X0143133
X0167909Y0272934
X0098133Y0262
X01805Y02709
X0187509Y0272962
X0187609Y0278834
Y0286734
Y0290634
X0175474Y028871
X0172266Y0288734
X0172831Y0280331
X01755Y02805
X0180624Y0280834
X0193133Y0272
X0203133
X0208133Y0282
X0218133
X0238133
X0243133Y0292
X0253133
X0263133
Y0272
X0273133
X0283133
X0278133Y0282
X0288133
X0298133
X0303133Y0292
X03102Y02917
X03185Y0287816
X03201Y02859
X0318133Y0282
X0323133Y0272
X0318133Y0262
X0308133
X0298133
X0293133Y0252
X0283133
X0278133Y0242
X0268133
X0258133
X0253133Y0252
X0243133
X0238133Y0262
X0248133
X0258133
X0263133Y0232
X0273133
X0278133Y0222
X0288133
X0288Y02135
X029Y02109
X0288133Y0202
X02835Y0205745
X0280917Y0207583
X0278133Y0202
X0273133Y0212
X0298133Y0222
X03065Y02194
X03082Y02174
X03169Y02234
X03153Y0225307
X0313133Y0232
X0303133
Y0252
Y0272
X0293133Y0292
X0283133
X0233133Y0272
X0203133Y0292
X0323133Y0252
X0318133Y0242
X03215Y0235149
X03231Y0233171
X0318133Y0202
X0308133
X0298133
X0328133
X0338133
X0348133
X0348335Y0206678
Y0212583
Y0218489
Y0224394
X0355535Y0224294
Y0218389
Y0212483
Y0206578
X0358133Y0202
X0363133Y0212
Y0232
X0355535Y0234137
X0348335Y0234237
X0348133Y0242
X0358133
X0363133Y0252
X0353133
X0358133Y0262
X0363133Y0272
X0353133
X0355535Y0277086
X0348335Y0276986
Y0286828
Y0292734
X0355535Y0292834
Y0286928
X0358133Y0282
X0363133Y0292
X0333133Y0272
X03279Y02759
X03263Y0278
X0338133Y0262
X0333133Y0252
X0328133Y0242
Y0222
Y0302
X0333133Y0312
X0328133Y0322
X0338133
X0348491Y032985
Y0335756
Y0341661
Y0347567
X0355691Y0347467
Y0341561
Y0335656
Y032975
X0363133Y0332
X0358133Y0322
X0363133Y0312
X0353133
X0355535Y0304645
Y0298739
X0348335Y0298639
Y0304545
X0353133Y0352
X0355691Y035731
X0358133Y0362
X0348133
X0348491Y035741
X0353133Y0372
X0363133
X0358133Y0382
X0363133Y0392
X0353133
X0358133Y0402
X0348133
X0348435Y0409928
Y0415834
Y0421739
Y0427645
X0355635Y0427745
Y0421839
Y0415934
Y0410028
X0363133Y0412
Y0432
X0353133
X0358133Y0442
X0368133
X0338133
X0328133
X0333133Y0432
X03284Y0417434
X03266Y0414922
X0333133Y0412
X0328133Y0402
X0333133Y0392
X0328133Y0382
X0333133Y0372
X0328133Y0362
X0327448Y035867
X03288Y03565
X0333133Y0352
X03258Y03466
X0363133Y0352
X0368133Y0342
X03197Y0340674
X03176Y03426
X0308133Y0342
X03102Y0336668
X0312Y03348
X0303569Y0330763
X03053Y03289
X0308133Y0322
X0298133
X0318133
X0323133Y0312
X0318133Y0302
X03084Y0293722
X0290946Y0297623
X0289111Y0299611
X0284Y03
X02815Y03005
X0278133Y0302
X0268133
X0258133
X0263133Y0312
X0258133Y0322
X0248133
X0238133
X0233133Y0312
X0243133
Y0332
X0238133Y0342
X0248133
X0258133
Y0362
X0268133
X0263133Y0372
X0273133
X0268133Y0382
X0278133
X0288133
X0283133Y0392
X0293133
X0288133Y0402
X0298133
X0308133
X0313133Y0392
X0318133Y0382
X0308133
X0303133Y0372
X0313133
X0308133Y0362
X0298133
X0288133
X0293133Y0352
X0283133
X0278133Y0342
X0288133
X0278133Y0322
X0268133
X0223133Y0332
X0218133Y0342
X0223133Y0352
X0218133Y0362
X0238133
Y0382
X0248133
X0243133Y0392
X0253133
X0258133Y0402
X0268133
X0263133Y0412
X0273133
X0278133Y0422
X0268133
X0273133Y0432
X0278133Y0442
X0288133
X0298133
X0308133
X0307567Y0428633
X03057Y04267
X0308133Y0422
X0298133
X0293133Y0412
Y0432
X0323133
X03197Y04227
X03215Y04208
X0323133Y0412
X0313133
X0323133Y0352
X0324Y03485
X0248133Y0402
Y0422
X0238133
X0233133Y0412
X0223133
X0218133Y0402
Y0382
X0198133
X0188133
X0178133
X0183133Y0372
X0173133
X0183133Y0392
X0178133Y0402
X0188133
X0198133
Y0422
X0188133
X0183133Y0432
X0173133
Y0412
X0183133
X0188133Y0442
X0198133
X0218133
X0248133
X0258133
X0253133Y0432
X0243133
X0198133Y0362
X0183133Y0352
X0178133Y0342
X0173133Y0332
X0178133Y0322
X0173133Y0312
X01733Y03068
X0175474Y03053
X0188133Y0302
X0187509Y0294634
X0198133Y0302
X0218133
X0223133Y0312
X0163133
X0168133Y0302
X0158133
X0148133
X0138133
X0143133Y0312
X0133133
X0123133
X0118133Y0302
X0108133
X0098133
X0088133
X0078133
X0068133
X0058133
X0063133Y0312
X0068133Y0322
X0078133
X0088133
X0094124Y0325008
X0095723Y0326907
X0098133Y0322
Y0342
X00921Y03408
X00904Y03427
X00855Y033675
X00839Y033485
X0083133Y0332
X0073133
X0063133
X006809Y0346661
X006969Y0348561
X00797Y0352567
X00781Y0354467
X0083133Y0352
X0068133Y0362
X0058133
X0063133Y0372
X0073133
X00694Y0378
X00677Y03799
X0076Y0384
X00776Y0385837
X0078133Y0382
X0088133
X00855Y03898
X00839Y0391742
X0093133Y0392
X00926Y04056
X0094227Y040749
X0098133Y0402
Y0422
X0088133
X0078133
X0068133
X0058133
X0063133Y0432
X0073133
X0078133Y0442
X0088133
X0098133
X0123133Y0432
X0133133
X0138133Y0422
X0148133
X0153133Y0432
X0148133Y0442
X0138133
X0168133
Y0422
Y0402
X0163133Y0392
Y0372
X0158133Y0362
X0148133
X0138133
X0133133Y0352
X0123133
Y0332
X0143133
X0138133Y0322
X0148133
X0158133
Y0342
X0168133
X0153133Y0352
X0138133Y0342
Y0382
X0123133Y0392
X0133133Y0412
X0153133
X0148133Y0402
X0083133Y0412
X0073133
X0063133
X0068133Y0402
X0045301Y0406578
X0038101Y0406478
X0038133Y0402
X0038101Y0396635
Y039073
Y0384824
X0038133Y0382
X0038101Y0378919
X0045301Y0379019
Y0384924
Y039083
Y0396735
X0033133Y0392
X0028133Y0402
X0033133Y0412
X0043133
X0038133Y0422
X0028133
X0033133Y0432
X0028133Y0442
X0038133
X0028133Y0382
X0033133Y0372
X0028133Y0362
X0038133
X0038101Y0353579
Y0347673
Y0341768
Y0335862
X0045301Y0335762
Y0341668
Y0347573
Y0353479
X0033133Y0352
X0028133Y0342
X0033133Y0332
X0038101Y032602
X0038133Y0322
X0028133
X0033133Y0312
X0038133Y0302
X0028133
X0045301Y032592
X0083133Y0312
X0093133Y0372
X0160924Y0294634
X0153133Y0452
X0148133Y0462
X0138133
X0133133Y0472
X0123133
Y0492
X0133133
X0138133Y0502
X0148133
X0153133Y0512
X0148133Y0522
X0138133
X0133133Y0512
X0123133
Y0532
X0133133
X0138133Y0542
X0148133
X0153133Y0552
X0148133Y0562
X0138133
X0133133Y0552
X0123133
Y0572
Y0592
X0138133Y0582
X0148133
X0153133Y0592
Y0572
X0168133Y0562
Y0582
Y0602
X0138133
X0098133Y0582
Y0562
X0088133
X0083133Y0552
X0088133Y0542
X0098133
Y0522
X0088133
X0083133Y0532
Y0512
X0073133
X0063133
Y0532
Y0552
X0058133Y0562
X0053133Y0572
X00575Y05767
X0060194Y0577643
X0068133Y0582
X0073133Y0592
X0083133Y0572
X0043133
X0048133Y0582
X0038133
X0028133
X0023133Y0572
X0028133Y0562
X0033133Y0552
X0043133
X0048133Y0542
X0038133
X0033133Y0532
X0043133
X0045301Y052051
Y0514605
Y0508699
Y0502794
X0038101Y0502694
Y0508599
Y0514505
Y052041
X0028133Y0522
X0033133Y0512
X0023133
X0028133Y0502
X0023133Y0492
X0033133
X0038133Y0482
X0038101Y047745
Y0471544
X0033133Y0472
X0038101Y0465639
Y0459733
X0045301Y0459633
Y0465539
Y0471444
Y047735
X0058133Y0482
X00692Y04784
X00675Y0476098
X0075Y04725
X0073369Y0470532
X00793Y04665
X0080959Y0464659
X0083133Y0472
X0093133
X0098133Y0462
X0088133
X0093133Y0452
X0073133
X0063133
X0068133Y0462
X0063133Y0492
X0083133
X0088133Y0482
X0098133
X0088133Y0502
X0138133Y0482
X0148133
X0153133Y0472
Y0492
X0168133Y0502
Y0482
Y0462
X0133133Y0452
X0123133
X0043133
X0033133
X0028133Y0462
Y0482
X0033133Y0592
X00315Y06
Y0605
X00365
X00265
X00215
X00265Y06
X0153133Y0532
X0168133Y0542
Y0522
X0173133Y0532
X0183133
X0188133Y0522
X0198133
Y0542
X0188133
X0183133Y0552
X0173133
Y0572
X0183133
X0178133Y0582
X0188133
X0198133
Y0562
X0188133
X0218133
X0223133Y0572
X0233133
X0238133Y0582
X0248133
Y0602
X0238133
X0233133Y0592
X0223133
X0218133Y0602
X0178133
X0183133Y0512
X0173133
Y0492
X0183133
X0188133Y0502
X0198133
Y0482
X0188133
X0183133Y0472
X0173133
Y0452
X0183133
X0188133Y0462
X0198133
X0218133
X0223133Y0452
X0233133
X0238133Y0462
X0233133Y0472
X0223133
X0218133Y0482
X0223133Y0492
X0233133
X0238133Y0482
X0248133
X0258133
X0268133
X0273133Y0492
X0263133
Y0512
X0273133
X0283133
X0278133Y0502
X0283133Y0492
X0293133
X0303133
X0298133Y0482
X0303133Y0472
X0313133
X0323133
X03212Y04653
X03229Y04633
X0318133Y0462
X0318Y0453465
X03162Y0451465
X0313133Y0452
X0303133
X0288133Y0462
X0278133
X0268133
X0258133
X0253133Y0452
X0273133
X0283133Y0472
X0293133
X0318133Y0482
X0323133Y0492
X0318133Y0502
X0308133
X0298133
X0303133Y0512
X0298133Y0522
X0293133Y0532
X0283133
X0273133
X0263133
Y0552
X0273133
X0283133
X02967Y05519
X0295157Y0549933
X0298133Y0542
X0306Y0544
X03076Y05461
X03164Y05401
X03146Y05381
X0313133Y0532
X0322Y05322
X03237Y05341
X0318133Y0522
X0323133Y0512
X0318133Y0562
X0308133
X0298133
Y0582
X0308133
X03165Y05769
X03187Y0574963
X0323133Y0572
X03231Y0580868
X03249Y0582868
X0318133Y0602
X0308133
X0303133Y0592
X0263133Y0572
X0248133Y0562
X0238133
X0233133Y0552
X0223133
X0218133Y0542
X0223133Y0532
X0233133
X0238133Y0542
X0248133
Y0522
X0238133
X0233133Y0512
X0223133
X0218133Y0522
Y0502
X0238133
X0248133
X0253133Y0472
X0333133
X0328133Y0482
X0333133Y0492
X0338133Y0502
X0348133
X0358133
X0353133Y0512
X0363133
X0355635Y0523386
X0348435Y0523286
Y0533128
Y0539034
Y0544939
Y0550845
X0355635Y0550945
Y0545039
Y0539134
Y0533228
X0363133Y0532
Y0552
X0358133Y0562
X0363133Y0572
X0353133
X0355535Y057585
Y0581756
X0355635Y0587661
X0355535Y0593567
X0348335Y0593667
X0348435Y0587761
X0348335Y0581856
Y057595
X0333133Y0572
X0328133Y0562
X0338133
X0333133Y0592
X03296Y0588774
X03278Y0586774
X0328133Y0602
X0348133
X0358133
X0368133
X0363133Y0592
X0368133Y0582
X0363133Y0492
X0353133
X0358133Y0482
X0348133
X0348391Y0470169
Y0464264
Y0458358
Y0452453
X0355591Y0452353
Y0458258
Y0464164
Y0470069
X0363133Y0472
X0368133Y0462
X0363133Y0452
X03268Y04574
X032845Y045932
X0333133Y0512
X03283Y05224
X032982Y05244
X0333133Y0612
X0338133Y0622
X0333133Y0632
X0328133Y0642
X0333133Y0652
X03278Y06609
X0326Y06631
X0348391Y0662034
Y0667939
Y0673845
X0355591Y0673945
Y0668039
Y0662134
Y0656228
X0353133Y0652
X0348391Y0656128
X0348133Y0642
X0358133
X0363133Y0632
X0353133
X0358133Y0622
X0353133Y0612
X0363133
Y0652
Y0672
X0358133Y0682
X0353133Y0692
X0355635Y069895
X0358133Y0702
X0355635Y0704856
Y0710761
Y0716667
X0348435Y0716767
Y0710861
Y0704956
Y069905
X0363133Y0692
Y0712
X0358133Y0722
X0355635Y072651
X0348435Y072661
X0353133Y0732
X0363133
X0358133Y0742
X0353133Y0752
X0363133
X0333133
X0338133Y0742
X0328133
X0333133Y0732
X03314Y0727522
X03297Y0725622
X0328133Y0722
X03293Y07117
X0331Y07098
X0328133Y0702
X0333133Y0692
X0338133Y0682
X0318133
X03178Y06696
X03161Y0667
X0318133Y0662
X0323133Y0652
X0293133
X0283133
X0273133
X0263133
Y0632
Y0612
X0273133
X0283133
X0298133Y0622
X0308133
X0303133Y0632
X0293133
X0298133Y0642
Y0662
X0293133Y0672
X0303133
X03086Y06729
X03068Y06748
X0298133Y0682
X0313133Y0692
X0323133
X03236Y06981
X03253Y07
X0318133Y0702
X03148Y0703968
X0313Y07058
X0308133Y0722
X0318133
X0308133Y0742
X0313133Y0752
X0323133
X0293133
X0283133
X0273133
X0263133
Y0732
X0273133
X0283133
Y0712
X0273133
X0263133
Y0692
X0273133
X0283133
Y0672
X0273133
X0263133
X0248133Y0682
X0238133
X0233133Y0692
X0223133
X0218133Y0702
X0223133Y0712
X0233133
X0238133Y0722
X0248133
Y0702
X0238133
X0233133Y0732
X0223133
X0218133Y0722
X0198133
X0188133
X0183133Y0732
X0178133Y0742
X0188133
X0198133
X0218133
X0223133Y0752
X0233133
X0238133Y0742
X0248133
X0183133Y0752
X0173133
X0183133Y0712
X0188133Y0702
X0198133
Y0682
X0188133
X0178133
X0173133Y0672
X0178133Y0662
X0188133
X0198133
Y0642
X0188133
X0218133
X0223133Y0632
X0233133
X0238133Y0622
X0248133
Y0642
X0238133
X0233133Y0652
X0223133
X0218133Y0662
X0223133Y0672
X0233133
X0238133Y0662
X0248133
X0218133Y0682
X0183133Y0692
Y0612
X0218133Y0622
X0233133Y0612
X0313133
X0323133
X0293133Y0712
X0153133
X0143133
X0129801Y0711313
X0129816Y0718319
X0128133Y0722
X0138133
X0148133
X0153133Y0732
X0163133
Y0752
X0153133
X0148133Y0742
X0133133Y0732
X0123133
X0113133
X0108133Y0742
X0113133Y0752
X0108133Y0722
X0093133Y0732
X0083133Y0712
X0078133Y0702
X0068133
X0058133
X00465Y07
Y0704752
X00415
Y07
X00365
X00315
X00265
X00215
X00165
Y071
X00215
Y0715
Y072
X00165
Y0725
Y073
X00215
Y0735
X00315
X00365
Y073
Y0725
X00315
Y073
X00415
X00465
Y07247
X0048133Y0722
X00465Y072
Y0715
Y071
X00415
X00365
Y0705
X00315
X00265
X00215
Y0695
X00265
X00315
Y069
Y0685
X00365
Y069
Y0695
X00415
X005197Y0687684
X0051564Y0677868
X0060404Y0677684
X0056259Y0667684
X0054454Y0657684
X0063133Y0652
X0068133Y0662
X0078133
X0073133Y0672
X0078133Y0682
X0088133
X0098133
X0103133Y0692
X0128133Y0702
X0138133
X0148133
X0153133Y0692
X0148133Y0682
X0123133Y0672
X0108133Y0662
X0098133
X0093133Y0652
X0098133Y0642
Y0622
X0108133
X0113133Y0632
X0128133Y0642
X0138133
X0143133Y0652
X0148133Y0622
X0138133
X0133133Y0612
X0158133Y0622
X0163133Y0632
X0168133Y0662
X00365Y066
Y0655
X00315
Y066
Y0665
X00365
Y0675
X00315
Y068
X00365
X00315Y067
X00265
Y065
Y0645
Y064
X00215
X00165
Y0645
X00215
X00315
Y064
Y0635
X00365
X00415Y064
X00465
Y0635
Y0629954
Y0625
X00415
Y0629954
Y062
Y0615
X00465
Y061
X00415
X00365
Y0615
X00315
Y061
X00265
Y0615
X00215
Y062
X00165
Y0625
X00215
Y063
X00265
Y0635
X00215
X00265Y0625
X00315
Y0629954
X00365Y0625
Y062
X00315
X00265
X00215Y061
X00465Y062
X00415Y0645
X00365
X00315Y065
Y0715
X00365
X00415
Y072
Y07247
X00365Y072
X00315
X00265
Y071
X00215Y0725
X00165Y074
X00315
Y0745
X00365
Y074
Y075
X00415Y074995
X00465Y0755
Y076
X00365
X00315Y0755
X00265
Y076
Y075
X0013133Y0752
X0048133Y0742
X0058133
X0063133Y0752
X0073133
X0063133Y0732
X0053133
X0058133Y0722
X0008133Y0842
Y0862
Y0882
Y0902
X00165Y08985
X00215
Y09035
Y09085
X00165
X00215Y09135
X00265
X00315
Y09085
X00365
X00415
X00465
Y08985
Y08935
Y08885
X00415
X00365
Y08836
Y08785
X00415
Y08735
Y08685
Y08635
X00365
X00315
X00265
Y08585
X00215
Y08635
Y08685
X00165
Y08735
Y08785
X00215
Y08835
Y08885
X00165
X00215Y08935
X00265
X00315
Y08985
Y09035
X00265
X00365
Y08985
X00415
Y08935
X00365
X00315Y08885
Y08835
X00265
Y08785
Y08735
X00315
X00365
Y08685
X00265
X00215Y08735
X00315Y08785
X00465Y08735
Y08585
Y08535
X00415
Y08485
X00465
X0048133Y0842
X0058133
X0068133
X0078133
X0088133
X0098133
X0108133
X0118133
X0128133
X0138133
X0148133
X0158133
X0168133
X0148133Y0822
X0138133
X0128133
X0118133
X0108133
X0098133
X0088133
X0078133
X0068133
X0070431Y0829509
X0063133Y0832
X0053133
X0043133
X0033133
X0023133
X0013133
X0018133Y0822
X0028133
X0038133
X0048133
X0053133Y0812
X0063133
X0073133
X0083133
X0093133
X0103133
X0113133
X0123133
X0133133
X0143133
X0153133
X0148133Y0802
X0138133
X01269Y0802625
Y07956
X0123133Y0792
X0133133
X0143133
X0153133
X0148133Y0782
X0153133Y0772
X0163133
X0148133Y0762
X0108133
X0113133Y0772
X0103133
X0093133
X0088133Y0762
Y0782
X0083133Y0792
X0073133
X0068133Y0782
X00465Y0785
Y079
Y0795
X00415
Y08
X0038133Y0802
X00365Y0795
X00315
X00265
Y079
Y0785
X0031496Y0785004
X00365Y0785
Y078
Y0775
X00315
X00265
Y077
Y0765
X00315
X00365
Y077
X00465Y0775
X00265Y078
X0013133Y0772
Y0792
X0018133Y0802
X0028133
X0023133Y0812
X0033133
X0043133
X0013133
X00215Y08485
X00265
X00315
Y08535
X0031519Y0858481
X00365Y08585
X00415
X00265Y08535
X0028133Y0842
X0052132Y0896027
X0059606
X0070313Y0896077
X0079906Y0896027
X0089906
X0099906
X0108539
X0118539
X0127332
X0135906
X0145906Y0896184
X0143133Y0912
X0133133
X0123133
X0113133
X0103133
X0093133
X0083133
X0073133
X0063133
X0053133
X00365Y09135
X0153133Y0912
X0163133
X0113133Y0792
X0103133
X0093133
X0108133Y0782
X0188133
X0198133
Y0762
X0188133
X0178133
X0183133Y0772
Y0792
X0188133Y0802
X0198133
X0218133
X0223133Y0812
X0233133
X0243133
X0253133
X0263133
X0273133
X0278133Y0822
X0288133
X0298133
X0303133Y0832
X0308133Y0842
X0317281Y0840666
X03158Y08387
X0316Y08287
X03144Y08269
X0318133Y0822
X0323133Y0832
Y0852
X0313133Y0872
X0303133
X0308133Y0882
X0303133Y0892
X0293133
X0283133
X0288133Y0902
X0298133
X0308133
X03206Y0903
X03225Y0901
X0323133Y0892
X03168Y09069
X03152Y09089
X02905Y09125
X02875
X0283133Y0912
X0273133
X0263133
X0258133Y0902
X0248133
X0243133Y0892
X0238133Y0882
X0228133
X0213133Y0872
X0203133
Y0852
X0193133
X0183133
X0178133Y0842
Y0822
X0183133Y0812
X0223133Y0832
X0233133
X0243133
X0253133
X0258133Y0822
X0268133
Y0842
X0258133
X0248133
X0238133
X0233133Y0852
X0223133
X0218133Y0862
X0238133
X0248133
X0258133
X0263133Y0872
X0268133Y0882
X0278133
X0288133Y0862
X0298133
X0283133Y0852
X0278133Y0842
X0273133Y0792
X0263133
X0243133
X0233133
X0238133Y0782
X0233133Y0772
X0223133
X0218133Y0762
X0238133
X0248133
X0263133Y0772
X0273133
X0283133
X0293133
Y0792
X0283133
X030981Y0792338
X0309835Y0790104
X03155Y0788
X0317724Y0788113
X0318133Y0782
X0308133
X0313133Y0772
X0318133Y0762
X0308133
X03245Y07682
X0323133Y0812
X0218133Y0782
Y0902
X0208133
X0198133
X0188133
X0178133
X0173133Y0912
X0223133
X0327179Y0893174
X03289Y08911
X0328133Y0882
X0338133
X0333133Y0872
X0338133Y0862
X0328133
X033Y08504
X03284Y0848523
X0328133Y0842
X03274Y08347
X03257Y08328
X0328Y0822863
X03264Y0820963
X0333133Y0812
X0338133Y0802
X0348435Y0796845
Y0790939
Y0785034
Y0779128
X0355635Y0779228
X0358133Y0782
X0355635Y0785134
Y0791039
Y0796945
X0358133Y0802
X0353133Y0812
X0363133
X0355635Y082185
Y0827756
Y0833661
Y0839567
X0358133Y0842
X0355635Y0849409
X0353133Y0852
X0348435Y084951
Y0839667
Y0833761
Y0827856
Y082195
X0363133Y0832
Y0852
X0358133Y0862
X0363133Y0872
X0353133
X0358133Y0882
X0355635Y0892286
X0348435Y0892186
Y0902028
Y0907934
Y0913839
X0355635Y0913939
Y0908034
Y0902128
X0368133Y0902
X0363133Y0912
Y0892
Y0792
Y0772
X0353133
X0355635Y0769386
X0348435Y0769286
X0348133Y0762
X0358133
X0328133
X03264Y07702
X0328133Y0782
X03312Y0784
X03295Y0786
X0333133Y0932
X0328133Y0942
X0348435Y0944855
Y0950761
Y0956666
Y0962572
X0355635Y0962472
Y0956566
Y0950661
Y0944755
X0358133Y0942
X0368133
X0363133Y0932
X0353133
X0355635Y0919845
X0358133Y0922
X0368133
X0348435Y0919745
X0363133Y0952
X0368133Y0962
X0363133Y0972
X0355635Y0972314
X0348435Y0972414
X0358133Y0982
X0353133Y0992
X0358133Y1002
X0363133Y1012
X0353133
X03556Y1015141
X03484Y1015041
Y1024883
Y1030789
Y1036695
Y10426
X03556Y10427
Y1036794
Y1030889
Y1024984
X0358133Y1022
X0363133Y1032
X0328133Y1022
X0333133Y1012
X0338133Y1002
X0328133
Y0982
X03292Y09733
X03276Y0971423
X03264Y0963484
X03248Y0961607
X03213Y09576
X03197Y0955723
X03175Y09517
X03159Y0949823
X03142Y0945767
X03126Y094389
X0298133Y0942
X0288133
X0278133
X0268133
X0258133
X0248133
X0253133Y0952
X0263133
X0273133
X0283133
X0293133
X0298133Y0962
X0288133
X0278133
X0268133
X0258133
X0248133
X0238133
X0228133
X0223133Y0952
X0233133
X0243133
Y0972
X0253133
X0263133
X0273133
X0283133
X0293133
X0278133Y0982
X0268133
X0258133
X0248133
X0238133
X0228133
X0218133
X0208133
X0198133
X0188133
X0178133
X0183133Y0992
X0193133
X0203133
X0213133
X0223133
X0233133
X0243133
X0253133
X0263133
X0273133
X0283133
X0278133Y1002
X0288133
X0298133
X0303133Y0992
X0313133
X0323133
Y0972
Y0932
X0303133
X0293133
X0283133
X0273133
X0263133
X0253133
X0243133
X0238133Y0922
X0228133
X0198133
X0188133
X0203133Y0932
X0208133Y0942
X0218133
X0223133Y0972
X0213133
X0233133
X0228133Y1002
X0218133
X0208133
X0198133
X0188133
X0178133
X01808Y10138
X01835
X0193133Y1012
X0203133
X0213133
X0223133
X0233133
X0243133
X0253133
X0263133
X0273133
X0283133
X02899Y10141
X0291511Y1016
X0288133Y1022
X0301621Y1022301
X0302695Y1024434
X0303133Y1032
X031Y1031777
X030815Y10299
X0308133Y1042
X0318133
X0317Y10377
X03181Y1035712
X03254Y1041588
X03243Y1043588
X0293133Y1032
X0268133Y1002
X0258133
X0248133
X0238133
X0173133Y1012
X01741Y10173
X01738Y10294
X0181Y1033
X01835
X0173133Y0992
Y0952
X0183133
X0198133Y0962
X0268133Y0922
X0278133
X0288133
X0298133
X03035Y0920733
X03019Y0918856
X0163133Y0952
X0143133
X0134538Y095
X01239
X0113133Y0952
X0103133
X0093133
X00853Y09499
X007225Y095
X0063133Y0952
X0053133
X00465Y09485
X00415
Y09435
Y09385
X00365
Y09335
X00315
X00265
X00215
Y09285
X00165
Y09385
X00215
X00265
Y09435
X0021963Y0943404
X00215Y0948486
X00165Y09485
Y09535
Y09585
X00215
X00265
X00315
Y09635
X00265
X00215
Y09685
X00165
Y09735
Y09785
X00215
Y09735
X00265
Y09688
X00315
Y09735
X00365
Y09688
X00415
Y09735
X00465
Y09688
Y09635
X00415
X00365
Y09535
X00315
Y09485
Y09435
X00365
X00315Y09385
Y09285
Y09235
X00265
X00215
Y09185
X00165
X00315
X00365
X00415
X00465
Y09285
X00415
X00365
Y09235
X00265Y09285
Y0948473
Y09535
X00215
X00415
X00465Y09385
X00465Y09785
X00415
X00365
Y09835
Y09885
X00415
Y09835
X00465
X00315
Y09885
X00265
X00215
X00165
Y09935
X0013133Y0992
X00215Y09935
X00315
X0035873Y0993871
X00365Y09985
X00415
X00315
X00265Y1003502
Y10135
X00165
X0013133Y1012
X00165Y10035
Y09835
X00265
X00315Y09785
X0053133Y0992
X0063133
X0073133
X0083133
X0078133Y0982
X0088133
X0098133
X0108133
X0118133
X0128133
X0138133
X0148133
X0158133
X0168133
X0163133Y0992
X0153133
X0143133
X0133133
X0123133
X0113133
X0103133
X0112495Y1003502
X0118133Y1002
X0128133
X0138133
X0148133
X0158133
X0168133
X0163133Y1012
X0153133
X0143133
X0133744Y1017339
X01346Y10215
X0136Y10241
X0136841Y1032474
X0133744Y10325
X0146843Y10261
X0148133Y1022
X01574Y1024084
X01597Y1026
X0159616Y1020195
X0166443Y10201
Y1022116
X0125033Y1017339
X0120613Y1011619
X0108133Y1022
X00365Y10235
X00215Y10385
X00165
Y10435
X00215
X0008133Y1002
Y0982
Y0962
Y0942
Y0922
T02
X0169431Y0680407
X0161557
X0159589Y0742218
X0167463
X016899Y0761593
X0161116
X0159147Y0823404
X0167021
T03
X0173489Y0695565
Y0703439
Y0711313
Y0719187
Y0727061
X0173047Y077675
Y0784624
Y0792498
Y0800372
Y0808246
T04
X0384646Y0009055
X0009055
X0384646Y1073622
X0009055
T05
X0012992Y0274985
X0380643Y0284898
Y0226325
X03808Y0349498
X0380743Y0407998
X0012992Y0398666
X0012992Y0333832
Y0457702
Y0522441
X0380743Y0531198
X03807Y04721
X0380643Y0595598
X03807Y0654198
X0380743Y0718698
Y0777198
Y0841598
Y0900098
Y0964502
X0380709Y1022953
T06
X004Y05939
X0032Y08061
X004Y08424
X0032Y10546
M30
